<?xml version="1.0" encoding="UTF-8"?>
<svg xmlns="http://www.w3.org/2000/svg" width="800" height="800" viewBox="0 0 800 800" role="img" aria-label="3D blood drop">
  <defs>
    <linearGradient id="bg-grad" x1="0" y1="0" x2="1" y2="1">
      <stop offset="0" stop-color="#e62a3a"/>
      <stop offset="1" stop-color="#a90f23"/>
    </linearGradient>
    <radialGradient id="body" cx="45%" cy="35%" r="70%">
      <stop offset="0%" stop-color="#ff394f"/>
      <stop offset="60%" stop-color="#e0152b"/>
      <stop offset="100%" stop-color="#7e0b18"/>
    </radialGradient>
    <radialGradient id="pallor" cx="48%" cy="38%" r="40%">
      <stop offset="0%" stop-color="white" stop-opacity="0.55"/>
      <stop offset="100%" stop-color="white" stop-opacity="0"/>
    </radialGradient>
    <linearGradient id="rim" x1="0" y1="0" x2="1" y2="1">
      <stop offset="0%" stop-color="#000" stop-opacity="0"/>
      <stop offset="100%" stop-color="#000" stop-opacity="0.35"/>
    </linearGradient>
    <linearGradient id="spec" x1="0" y1="0" x2="1" y2="1">
      <stop offset="0%" stop-color="#ffffff" stop-opacity="0"/>
      <stop offset="60%" stop-color="#ffffff" stop-opacity="0.85"/>
      <stop offset="100%" stop-color="#ffffff" stop-opacity="0"/>
    </linearGradient>
    <filter id="softShadow" x="-20%" y="-20%" width="140%" height="140%">
      <feGaussianBlur in="SourceAlpha" stdDeviation="12" result="b"/>
      <feOffset dx="0" dy="18" result="o"/>
      <feColorMatrix in="o" type="matrix" values="0 0 0 0 0  0 0 0 0 0  0 0 0 0 0  0 0 0 0.35 0"/>
      <feBlend in="SourceGraphic" mode="normal"/>
    </filter>
  </defs>

  <!-- Optional soft circular glow behind -->
  <circle cx="580" cy="420" r="220" fill="url(#bg-grad)" opacity="0.10"/>

  <!-- Main glossy teardrop -->
  <g filter="url(#softShadow)">
    <!-- Body shape -->
    <path id="drop" fill="url(#body)" d="M 520 150 C 540 210, 560 260, 610 330 C 655 392, 670 454, 650 520 C 628 592, 560 640, 480 660 C 380 684, 260 650, 220 560 C 183 477, 218 404, 260 340 C 304 272, 356 228, 404 180 C 432 152, 472 136, 520 150 Z"/>
    <!-- Central pallor / gloss -->
    <ellipse cx="470" cy="350" rx="140" ry="120" fill="url(#pallor)"/>
    <!-- Rim darkening -->
    <path d="M 520 150 C 540 210, 560 260, 610 330 C 655 392, 670 454, 650 520 C 628 592, 560 640, 480 660 C 380 684, 260 650, 220 560 C 183 477, 218 404, 260 340 C 304 272, 356 228, 404 180 C 432 152, 472 136, 520 150 Z" fill="url(#rim)"/>
    <!-- Specular streak -->
    <path d="M 330 290 C 380 220, 470 200, 540 260 C 520 250, 470 300, 410 360 C 380 392, 340 420, 320 410 C 300 396, 300 350, 330 290 Z" fill="url(#spec)"/>
  </g>

  <!-- A few tiny platelets for richness -->
  <g fill="#ffc97b" opacity="0.90">
    <ellipse cx="650" cy="300" rx="10" ry="7"/>
    <ellipse cx="690" cy="360" rx="8" ry="6"/>
    <ellipse cx="640" cy="430" rx="9" ry="6"/>
    <ellipse cx="620" cy="520" rx="7" ry="5"/>
  </g>
</svg>
